# xmcd
#
# Track frame offsets: 
#        182
#        12770
#        25555
#        36490
#        49370
#        64360
#        75007
#        84725
#        98580
#        112877
#        125412
#        138225
#
# Disc length: 1998 seconds
#
# Revision: 1
# Processed by: cddbd v1.5.2PL0 Copyright (c) Steve Scherf et al.
# Submitted via: ExactAudioCopy v1.1
#
DISCID=8d07cc0c
DTITLE=Roy Acuff - The Best Of Roy Acuff
DYEAR=1963
DGENRE=Bluegrass
TTITLE0=Wabash Cannonball
TTITLE1=The Great Speckled Bird
TTITLE2=I'm Building A Home (In The Sky)
TTITLE3=Pins And Needles (In My Heart)
TTITLE4=The Great Judgement Morning
TTITLE5=Fire Ball Mail
TTITLE6=Night Train To Memphis
TTITLE7=The Wreck On The Highway
TTITLE8=The Precious Jewel
TTITLE9=The Great Titanic
TTITLE10=Lonely Mound Of Clay
TTITLE11=Come Back Little Pal
EXTD=
EXTT0=
EXTT1=
EXTT2=
EXTT3=
EXTT4=
EXTT5=
EXTT6=
EXTT7=
EXTT8=
EXTT9=
EXTT10=
EXTT11=
PLAYORDER=
